<?xml version="1.0" encoding="UTF-8" standalone="no"?>
<svg
   xmlns="http://www.w3.org/2000/svg"
   width="30"
   height="30"
   id="svg2"
   version="1.1">
  <defs
     id="defs4" />
  <metadata
     id="metadata7">
  </metadata>
  <g
     id="layer1"
     transform="translate(0,-1022.3622)">
    <path
       style="color:#000000;fill:#1a1a1a;stroke:#d4d4d4;stroke-width:1.02777779;stroke-opacity:1;marker:none;visibility:visible;display:inline;overflow:visible;enable-background:accumulate"
       id="path16617-6-6"
       d="m 29.170673,16.56851 a 14.008413,14.008413 0 1 1 -28.0168263,0 14.008413,14.008413 0 1 1 28.0168263,0 z"
       transform="matrix(0.97297297,0,0,0.97297297,330.50795,953.63241)" />
    <path
       style="fill:#1a1a1a;stroke:#d4d4d4;stroke-width:1px;stroke-linecap:butt;stroke-linejoin:miter;stroke-opacity:1"
       d="m 345.29648,957.89011 0,11.863 0,0"
       id="path16623-6-2"
       
        />
    <path
       style="fill:#1a1a1a;stroke:#d4d4d4;stroke-width:1px;stroke-linecap:butt;stroke-linejoin:miter;stroke-opacity:1"
       d="m 357.15947,969.75311 -1.70877,0 0,0"
       id="path16623-4-2-0"
       />
    <path
       style="fill:#1a1a1a;stroke:#d4d4d4;stroke-width:0.99999994px;stroke-linecap:butt;stroke-linejoin:miter;stroke-opacity:1"
       d="m 345.29648,981.61611 0,-2.0181 0,0"
       id="path16623-4-3-9-0"
       />
    <path
       style="fill:#1a1a1a;stroke:#d4d4d4;stroke-width:1px;stroke-linecap:butt;stroke-linejoin:miter;stroke-opacity:1"
       d="m 333.43348,969.75311 11.863,0 0,0"
       id="path16623-4-3-4-1-0"
       />
    <path
       id="path9518-0-7"
       d="m 14.999994,1025.9915 -11.2422196,9.9235 2.2484301,0 0,12.8177 6.7453475,0 0,-7.5644 4.651059,0 1.3e-5,7.5644 6.591159,0 0,-12.8177 2.248444,0 -11.242237,-9.9235 0,0 0,0 z"
       style="font-size:12px;fill:none;stroke:none" />
    <path
       id="path13120-2-0"
       style="color:#000000;fill:#1a1a1a;fill-opacity:1;fill-rule:nonzero;stroke:none;stroke-width:3;marker:none;visibility:visible;display:inline;overflow:visible;enable-background:accumulate"
       d="m 5.3453711,1030.2117 -0.7686551,-0.5729 -0.8709849,0.4006 0.307392,-0.9081 -0.65017,-0.7045 0.9586339,0.012 0.4691581,-0.8361 0.285077,0.9153 0.940125,0.1878 -0.782447,0.5541 z m 20.2646399,19.0269 -0.768655,-0.5729 -0.870984,0.4006 0.307391,-0.9081 -0.650169,-0.7045 0.958634,0.012 0.469157,-0.8361 0.285077,0.9153 0.940126,0.1878 -0.782447,0.5541 z m 0.35646,-10.0462 -0.768656,-0.5729 -0.870984,0.4006 0.307391,-0.9081 -0.650169,-0.7045 0.958634,0.012 0.469157,-0.8361 0.285077,0.9153 0.940126,0.1878 -0.782447,0.5541 z m -9.92934,-0.4039 -0.768655,-0.5729 -0.870985,0.4006 0.307392,-0.9081 -0.65017,-0.7045 0.958634,0.012 0.469158,-0.8361 0.285077,0.9153 0.940125,0.1878 -0.782447,0.5541 z m 5.19115,-10.6936 -0.768655,-0.5729 -0.870985,0.4006 0.307392,-0.9081 -0.65017,-0.7045 0.958634,0.012 0.469158,-0.8361 0.285077,0.9153 0.940125,0.1878 -0.782447,0.5541 z m -8.849952,3.4056 c -4.3003499,0 -7.77515,3.5028 -7.77515,7.8032 0,4.3004 3.4748001,7.7751 7.77515,7.7751 2.80412,0 5.2534,-1.4813 6.62431,-3.7051 -0.84439,0.3851 -1.79022,0.5895 -2.77884,0.5895 -3.69324,0 -6.68045,-2.9873 -6.68045,-6.6805 0,-2.4487 1.32059,-4.5891 3.28408,-5.7542 -0.14617,-0.01 -0.30088,-0.028 -0.4491,-0.028 z" />
  </g>
</svg>
